<svg width="125" height="147" xmlns="http://www.w3.org/2000/svg">
 <!-- Created with Method Draw - http://github.com/duopixel/Method-Draw/ -->
 <defs>
  <filter height="200%" width="200%" y="-50%" x="-50%" id="svg_2_blur">
   <feGaussianBlur stdDeviation="1.6" in="SourceGraphic"/>
  </filter>
  <filter id="svg_3_blur">
   <feGaussianBlur stdDeviation="1" in="SourceGraphic"/>
  </filter>
 </defs>
 <g>
  <title>background</title>
  <rect fill="#7f0000" id="canvas_background" height="149" width="127" y="-1" x="-1"/>
  <g display="none" overflow="visible" y="0" x="0" height="100%" width="100%" id="canvasGrid">
   <rect fill="url(#gridpattern)" stroke-width="0" y="0" x="0" height="100%" width="100%"/>
  </g>
 </g>
 <g>
  <title>Layer 1</title>
  <path stroke="#000" filter="url(#svg_2_blur)" id="svg_2" d="m6.618422,73.500002l0,0c0,-31.480231 25.519775,-57.000006 57.000006,-57.000006l0,0c15.117335,0 29.615516,6.005337 40.305083,16.694912c10.689578,10.689578 16.694923,25.187748 16.694923,40.305094l0,0c0,31.480227 -25.519775,57.000006 -57.000006,57.000006l0,0c-31.480227,0 -57.000006,-25.519779 -57.000006,-57.000006zm28.500003,0l0,0c0,15.740112 12.759895,28.500003 28.500003,28.500003c15.740119,0 28.500003,-12.759891 28.500003,-28.500003c0,-15.740112 -12.759891,-28.500003 -28.500003,-28.500003l0,0c-15.740108,0 -28.500003,12.759895 -28.500003,28.500003z" stroke-width="9" fill="#fff"/>
  <path stroke="#ffffff" filter="url(#svg_3_blur)" id="svg_3" d="m1.855272,59.398097l46.419251,0l14.343906,-44.098094l14.343914,44.098094l46.419243,0l-37.553894,27.253809l14.344648,44.098094l-37.55391,-27.254551l-37.553902,27.254551l14.344652,-44.098094l-37.553906,-27.253809z" stroke-width="1.5" fill="#000000"/>
  <path id="svg_4" d="m64.118423,75" opacity="0.5" stroke-width="1.5" stroke="#000000" fill="#0000bf"/>
  <path stroke="#ffffff" id="svg_5" d="m41.708814,53.361693c-0.785605,4.448287 -2.792316,8.69956 -2.927443,13.286602c0.179794,2.65589 -1.601986,4.082492 -4.041191,4.032265c-2.623442,2.719389 0.323812,7.017089 3.292172,8.114825c3.02938,2.033445 6.787538,-0.238714 9.788413,1.585367c3.984664,3.114861 5.648169,8.637575 4.273464,13.479251c-1.366825,3.996815 5.629873,2.543209 2.998178,-0.651754c-2.032558,-3.12283 3.83152,-2.090362 2.33028,0.874477c-0.283675,2.379942 1.755507,3.150269 0.848004,5.455998c2.364199,1.355639 -0.198183,2.114681 -1.638202,2.370646c-3.372193,1.681028 0.609964,-3.011295 -2.061484,-4.399193c-2.446376,0.531675 -0.788705,4.628312 -1.628413,4.155155c-1.72868,-1.353643 -1.727405,-6.414532 -4.628717,-3.112362c-0.962916,-4.068856 0.794007,-8.306406 -0.559424,-12.35164c0.55442,-3.021035 -4.2154,-4.063072 -3.612103,-0.559179c0.240503,5.347682 -1.383379,10.684714 -0.451388,16.006048c1.283618,3.282154 4.873691,4.760725 7.126922,7.293471c1.850516,1.952891 4.249549,4.040849 7.129774,3.42601c3.266778,-0.141606 6.539579,-0.443309 9.791616,0.075347c4.090402,0.129011 7.212917,-3.10421 10.703661,-4.76504c4.103641,-3.258471 3.457535,-9.07878 3.048454,-13.714939c-0.501612,-2.86232 0.599115,-5.725942 0.393984,-8.56147c-2.958503,-3.619899 -5.385821,2.742798 -4.543048,5.476424c-0.000207,3.438694 0.660156,7.86832 -2.620081,10.108317c-2.70708,-0.068261 -5.283438,0.91503 -8.011397,0.400907c-2.213584,1.314518 -5.799045,1.280763 -6.529705,-1.848488c-0.29171,-2.778981 0.967482,-5.692461 -0.74341,-8.286023c1.503225,1.294682 4.125887,-1.118173 2.664254,1.784417c-1.782772,2.362703 1.509582,6.003474 2.749,2.516086c0.411204,-2.339835 -1.778688,-5.445299 1.821033,-4.944004c0.734108,0.825329 -2.506917,6.598491 1.923359,5.13955c3.158546,-0.691866 -0.561931,-5.646543 3.715357,-5.663761c2.070052,-2.437038 1.512693,-7.004953 4.67913,-8.853764c3.530557,-2.389307 9.04295,-0.664322 11.562848,-4.710601c2.147863,-2.070629 1.137087,-7.809731 -2.567197,-5.908087c-4.62916,0.451271 -0.955276,-6.269801 -1.084437,-8.788261c1.09071,-2.19349 -1.324584,-6.810781 -0.492889,-7.300655c1.57151,2.40439 2.134362,5.216588 1.796389,8.02651c-0.029043,2.382906 -1.039601,8.840906 2.273222,4.85985c1.121479,-2.774446 0.795307,-5.917003 1.594304,-8.803493c1.541056,-6.231856 -1.218236,-12.467176 -4.294331,-17.74552c-2.619858,-2.841584 -5.945842,-5.10679 -9.069195,-7.337075c-5.25359,-1.97587 -11.054367,-2.32984 -16.602963,-1.834639c-4.907954,0.850712 -10.098099,1.747603 -14.007908,5.093929c-3.810444,2.245196 -7.459745,5.227163 -8.96617,9.541286c-1.312786,3.475459 -3.611641,7.014786 -2.566833,10.87552c0.999219,3.218353 0.469255,6.560728 0.63104,9.850213c1.703371,3.759556 3.311562,-1.923788 3.152153,-3.803649c0.094299,-3.564823 1.975065,-6.72021 3.360922,-9.884866l-0.000003,-0.000005zm31.286308,7.647857c3.502865,0.251005 7.938025,2.201641 8.033618,6.268333c0.532629,4.081032 -2.764926,8.036859 -6.99083,7.636651c-3.838476,-0.315296 -6.2934,-3.630928 -6.038515,-7.35864c-1.28511,-2.672811 0.714748,-5.535424 3.398742,-6.149858c0.52048,-0.175016 1.055475,-0.306018 1.596985,-0.396488l0,0.000003zm-23.638449,0.347599c4.063583,-0.722682 8.686906,1.79817 8.700474,6.296196c0.381653,4.3484 -4.235013,5.200339 -7.3843,6.289678c-2.179163,1.407055 -4.442797,0.096983 -6.253511,-1.320671c-2.349311,-2.459009 -1.658794,-7.414281 0.82184,-9.658937c1.202906,-0.890251 2.692005,-1.240212 4.115497,-1.606266zm13.904981,11.471456c1.967229,2.703847 4.328901,6.827033 1.784849,9.895799c-2.258422,1.811225 -2.543149,-2.576274 -4.91358,-0.509944c-2.22374,-1.947542 -0.172762,-5.910597 1.387542,-7.889061c0.514267,-0.569724 1.102764,-1.071298 1.741188,-1.496794z" stroke-width="1.5" fill="#00007f"/>
  <text stroke="#ffff00" transform="matrix(0.4916825276127243,0,0,0.4916825276127243,92.96177719817321,113.81970589332477) " font-weight="normal" xml:space="preserve" text-anchor="start" font-family="'League Gothic', sans-serif" font-size="29" id="svg_7" y="53.975733" x="-171.834524" fill="#7f0000">ERIK GUEVARA</text>
 </g>
</svg>